HIERARCHY
ROOT Hips
{
    OFFSET   0.000000   0.000000   0.000000
    CHANNELS 6 Xposition Yposition Zposition Zrotation Xrotation Yrotation
    JOINT Chest
    {
        OFFSET   0.000000   8.007230   0.000000
        CHANNELS 3 Zrotation Xrotation Yrotation
        JOINT Chest2
        {
            OFFSET   0.000000  22.077100   0.000000
            CHANNELS 3 Zrotation Xrotation Yrotation
            JOINT Neck
            {
                OFFSET   0.000000  23.255100   0.000000
                CHANNELS 3 Zrotation Xrotation Yrotation
                JOINT Head
                {
                    OFFSET   0.000000  14.370100   1.956600
                    CHANNELS 3 Zrotation Xrotation Yrotation
                    End Site
                    {
                        OFFSET   0.000000  19.566000   0.000000
                    }
                }
            }
            JOINT LeftCollar
            {
                OFFSET   3.911900  19.017000  -0.467063
                CHANNELS 3 Zrotation Xrotation Yrotation
                JOINT LeftShoulder
                {
                    OFFSET  10.383700   0.000000   0.000000
                    CHANNELS 3 Zrotation Xrotation Yrotation
                    JOINT LeftElbow
                    {
                        OFFSET  26.662100   0.001193   0.000980
                        CHANNELS 3 Zrotation Xrotation Yrotation
                        JOINT LeftWrist
                        {
                            OFFSET  28.869000  -0.000059  -0.000082
                            CHANNELS 3 Zrotation Xrotation Yrotation
                            JOINT LeftFinger0
                            {
                                OFFSET   2.044650  -2.323450   3.252850
                                CHANNELS 3 Zrotation Xrotation Yrotation
                                JOINT LeftFinger01
                                {
                                    OFFSET   3.088130   0.000000   0.000000
                                    CHANNELS 3 Zrotation Xrotation Yrotation
                                    JOINT LeftFinger02
                                    {
                                        OFFSET   2.639460   0.000000   0.000000
                                        CHANNELS 3 Zrotation Xrotation Yrotation
                                        End Site
                                        {
                                            OFFSET   2.582190   0.000000   0.000000
                                        }
                                    }
                                }
                            }
                            JOINT LeftFinger1
                            {
                                OFFSET   8.364480   0.000000   3.252850
                                CHANNELS 3 Zrotation Xrotation Yrotation
                                JOINT LeftFinger11
                                {
                                    OFFSET   4.646930   0.000000   0.000000
                                    CHANNELS 3 Zrotation Xrotation Yrotation
                                    JOINT LeftFinger12
                                    {
                                        OFFSET   2.323470   0.000000   0.000000
                                        CHANNELS 3 Zrotation Xrotation Yrotation
                                        End Site
                                        {
                                            OFFSET   2.273050   0.000000   0.000000
                                        }
                                    }
                                }
                            }
                            JOINT LeftFinger2
                            {
                                OFFSET   8.364490   0.000016   1.078090
                                CHANNELS 3 Zrotation Xrotation Yrotation
                                JOINT LeftFinger21
                                {
                                    OFFSET   5.111610   0.000000   0.000000
                                    CHANNELS 3 Zrotation Xrotation Yrotation
                                    JOINT LeftFinger22
                                    {
                                        OFFSET   2.788150   0.000016   0.000000
                                        CHANNELS 3 Zrotation Xrotation Yrotation
                                        End Site
                                        {
                                            OFFSET   2.727660   0.000000   0.000000
                                        }
                                    }
                                }
                            }
                            JOINT LeftFinger3
                            {
                                OFFSET   7.899780   0.000015  -1.078090
                                CHANNELS 3 Zrotation Xrotation Yrotation
                                JOINT LeftFinger31
                                {
                                    OFFSET   4.646930   0.000000   0.000000
                                    CHANNELS 3 Zrotation Xrotation Yrotation
                                    JOINT LeftFinger32
                                    {
                                        OFFSET   2.323470   0.000000   0.000000
                                        CHANNELS 3 Zrotation Xrotation Yrotation
                                        End Site
                                        {
                                            OFFSET   2.273050   0.000000   0.000000
                                        }
                                    }
                                }
                            }
                            JOINT LeftFinger4
                            {
                                OFFSET   7.435090   0.000000  -3.252850
                                CHANNELS 3 Zrotation Xrotation Yrotation
                                JOINT LeftFinger41
                                {
                                    OFFSET   3.717550   0.000000   0.000000
                                    CHANNELS 3 Zrotation Xrotation Yrotation
                                    JOINT LeftFinger42
                                    {
                                        OFFSET   1.858770   0.000000   0.000000
                                        CHANNELS 3 Zrotation Xrotation Yrotation
                                        End Site
                                        {
                                            OFFSET   1.818440   0.000000   0.000000
                                        }
                                    }
                                }
                            }
                        }
                    }
                }
            }
            JOINT RightCollar
            {
                OFFSET  -3.911910  19.017000  -0.467062
                CHANNELS 3 Zrotation Xrotation Yrotation
                JOINT RightShoulder
                {
                    OFFSET -10.383700   0.000014   0.000000
                    CHANNELS 3 Zrotation Xrotation Yrotation
                    JOINT RightElbow
                    {
                        OFFSET -26.662100   0.001225   0.001091
                        CHANNELS 3 Zrotation Xrotation Yrotation
                        JOINT RightWrist
                        {
                            OFFSET -28.869000  -0.000020  -0.000085
                            CHANNELS 3 Zrotation Xrotation Yrotation
                            JOINT RightFinger0
                            {
                                OFFSET  -2.044650  -2.323490   3.252850
                                CHANNELS 3 Zrotation Xrotation Yrotation
                                JOINT RightFinger01
                                {
                                    OFFSET  -3.088130   0.000000   0.000000
                                    CHANNELS 3 Zrotation Xrotation Yrotation
                                    JOINT RightFinger02
                                    {
                                        OFFSET  -2.639460   0.000000   0.000000
                                        CHANNELS 3 Zrotation Xrotation Yrotation
                                        End Site
                                        {
                                            OFFSET  -2.582190   0.000000   0.000000
                                        }
                                    }
                                }
                            }
                            JOINT RightFinger1
                            {
                                OFFSET  -8.364480   0.000000   3.252850
                                CHANNELS 3 Zrotation Xrotation Yrotation
                                JOINT RightFinger11
                                {
                                    OFFSET  -4.646930   0.000000   0.000000
                                    CHANNELS 3 Zrotation Xrotation Yrotation
                                    JOINT RightFinger12
                                    {
                                        OFFSET  -2.323470   0.000000   0.000000
                                        CHANNELS 3 Zrotation Xrotation Yrotation
                                        End Site
                                        {
                                            OFFSET  -2.273050   0.000000   0.000000
                                        }
                                    }
                                }
                            }
                            JOINT RightFinger2
                            {
                                OFFSET  -8.364480   0.000000   1.078090
                                CHANNELS 3 Zrotation Xrotation Yrotation
                                JOINT RightFinger21
                                {
                                    OFFSET  -5.111620   0.000000   0.000000
                                    CHANNELS 3 Zrotation Xrotation Yrotation
                                    JOINT RightFinger22
                                    {
                                        OFFSET  -2.788160   0.000000   0.000000
                                        CHANNELS 3 Zrotation Xrotation Yrotation
                                        End Site
                                        {
                                            OFFSET  -2.727660   0.000000   0.000000
                                        }
                                    }
                                }
                            }
                            JOINT RightFinger3
                            {
                                OFFSET  -7.899780   0.000000  -1.078090
                                CHANNELS 3 Zrotation Xrotation Yrotation
                                JOINT RightFinger31
                                {
                                    OFFSET  -4.646930   0.000000   0.000000
                                    CHANNELS 3 Zrotation Xrotation Yrotation
                                    JOINT RightFinger32
                                    {
                                        OFFSET  -2.323470   0.000000   0.000000
                                        CHANNELS 3 Zrotation Xrotation Yrotation
                                        End Site
                                        {
                                            OFFSET  -2.273050   0.000000   0.000000
                                        }
                                    }
                                }
                            }
                            JOINT RightFinger4
                            {
                                OFFSET  -7.435090   0.000000  -3.252850
                                CHANNELS 3 Zrotation Xrotation Yrotation
                                JOINT RightFinger41
                                {
                                    OFFSET  -3.717550   0.000000   0.000000
                                    CHANNELS 3 Zrotation Xrotation Yrotation
                                    JOINT RightFinger42
                                    {
                                        OFFSET  -1.858760   0.000000   0.000000
                                        CHANNELS 3 Zrotation Xrotation Yrotation
                                        End Site
                                        {
                                            OFFSET  -1.818440   0.000000   0.000000
                                        }
                                    }
                                }
                            }
                        }
                    }
                }
            }
        }
    }
    JOINT LeftHip
    {
        OFFSET   9.783030   0.000000   0.000000
        CHANNELS 3 Zrotation Xrotation Yrotation
        JOINT LeftKnee
        {
            OFFSET   0.000063 -41.789100   0.000608
            CHANNELS 3 Zrotation Xrotation Yrotation
            JOINT LeftAnkle
            {
                OFFSET   0.000048 -41.133200  -0.000184
                CHANNELS 3 Zrotation Xrotation Yrotation
                JOINT LeftToe
                {
                    OFFSET   0.000000  -6.358960  14.674500
                    CHANNELS 3 Zrotation Xrotation Yrotation
                    End Site
                    {
                        OFFSET   0.000000   0.000000   3.913200
                    }
                }
            }
        }
    }
    JOINT RightHip
    {
        OFFSET  -9.783030   0.000000   0.000000
        CHANNELS 3 Zrotation Xrotation Yrotation
        JOINT RightKnee
        {
            OFFSET   0.000071 -41.789100   0.001239
            CHANNELS 3 Zrotation Xrotation Yrotation
            JOINT RightAnkle
            {
                OFFSET   0.000037 -41.133200  -0.000166
                CHANNELS 3 Zrotation Xrotation Yrotation
                JOINT RightToe
                {
                    OFFSET   0.000000  -6.358960  14.674500
                    CHANNELS 3 Zrotation Xrotation Yrotation
                    End Site
                    {
                        OFFSET   0.000000   0.000000   3.913200
                    }
                }
            }
        }
    }
}
MOTION
Frames: 4
Frame Time:   0.016667
 -0.618170  89.954600  -0.158869  -1.753120  -7.493230  -5.750110   0.775569   6.002860  -1.310570   1.703990  11.985700  -2.725830   0.230688  -1.548350   0.006377   0.379502  -3.139450  21.038300  -7.927480   0.218525   7.089300 -67.074600  17.772000  -6.048060   0.287770  -4.668240 -68.581500 -38.225200 -62.473700 -26.813600  49.996100  40.448500 -81.889000  -8.824370   0.006810   0.001065   0.587827   0.001983  -0.002167 -28.178400   9.266530 -16.740700 -24.172400   0.000184  -0.000278 -16.920700  -0.001250   0.004631 -28.574500  -3.820310   6.972970 -41.728400  -0.002567  -0.001679 -27.791100   0.000310  -0.008347 -26.135400  -3.522860   7.128060 -26.355100  -0.003743  -0.000478 -17.552500  -0.003700  -0.000907 -27.533800  -8.639940  16.071700 -43.133700  -0.001270  -0.004362 -28.727000  -0.003423   0.005306   9.374240   1.924170  11.079800  66.036800   8.441640   4.724040  -6.446910  -8.915900  62.286500  -4.416040 -82.847100  23.404800 -37.534400  26.322700  68.113100  20.581700   0.002931  -0.001028   5.290850  -0.007890   0.004927  27.871200   8.713940  15.990500  23.806000  -0.003795   0.000966  16.664200  -0.002743   0.000778  27.394300   2.520630   4.855990  28.677600  -0.004419  -0.001115  19.099300  -0.003380   0.000220  27.896900   0.849574   1.605320  31.356000  -0.006971   0.004312  20.883100  -0.005370   0.003582  31.402900  -6.036580  -9.769110  47.879400   0.000477   0.007186  31.887700   0.000690  -0.000919   2.073070   8.523690   4.766720  -0.123432   2.334290  16.203200  -5.351240  -4.415390   4.711520  -0.000000   0.000000   0.000000   1.420970   7.448900  -6.388130  -0.661158   3.320740 -10.396000  -6.300620  -0.475924   5.280410  -0.000000   0.000000  -0.000000
 -0.599956  89.944500  -0.151980  -1.701370  -7.412660  -5.567750   0.757251   5.916330  -1.289310   1.662300  11.813400  -2.678170   0.140377  -1.573350   0.003942   0.230931  -3.190280  20.913200  -7.929160   0.225665   7.046810 -67.515400  17.117000  -5.795660   0.474300  -4.608250 -68.452700 -37.702400 -62.067500 -26.176200  50.081000  40.435100 -81.834100  -9.256040   0.007582   0.001237   0.371990   0.002084  -0.002326 -28.345400   9.164270 -16.316700 -24.300100   0.000345  -0.000280 -17.010100  -0.001010   0.004637 -28.578000  -3.783290   6.909060 -42.473300  -0.002257   0.000045 -28.287200   0.000430  -0.008264 -26.341300  -3.517410   7.050890 -26.558500  -0.003132  -0.000003 -17.687900  -0.003701  -0.000912 -27.463200  -8.681940  16.160100 -43.050900  -0.000879  -0.004144 -28.671800  -0.002953   0.005128   9.413460   1.996640  11.008400  66.156100   8.047990   4.615760  -6.503810  -9.022180  62.113700  -0.850733 -82.380500  27.046100 -37.661600  26.853100  68.580600  20.629400   0.002931  -0.001019   5.314700  -0.007888   0.004925  28.015300   8.667950  15.779100  23.926300  -0.003706   0.001259  16.748400  -0.002486   0.000783  27.348800   2.513240   4.848970  28.669000  -0.004243  -0.000795  19.093600  -0.003255   0.000217  27.891900   0.906242   1.711810  31.352800  -0.006487   0.004039  20.881000  -0.005361   0.003575  31.500600  -5.964190  -9.572420  48.007800   0.001084   0.007189  31.973200   0.000690  -0.000972   2.051260   8.344390   4.764370  -0.121305   2.450410  16.041100  -5.334760  -4.439910   4.700210  -0.000000   0.000000   0.000000   1.407500   7.369450  -6.386690  -0.663992   3.354200 -10.481500  -6.300560  -0.502584   5.170690   0.000000   0.000000   0.000000
 -0.583869  89.935300  -0.148265  -1.657050  -7.346450  -5.404410   0.736805   5.841780  -1.256720   1.615680  11.665300  -2.609770   0.063951  -1.590120   0.001793   0.105248  -3.224350  20.776900  -7.935820   0.226704   7.002000 -67.831700  16.795400  -5.683890   0.544897  -4.656760 -68.113800 -36.932700 -61.702300 -25.328900  50.193100  40.373400 -81.645300  -9.677130   0.008342   0.001430   0.161434   0.002172  -0.002485 -28.455100   8.972110 -16.048600 -24.318400   0.000490  -0.000281 -17.022900  -0.000771   0.004643 -28.570900  -3.778000   6.899930 -42.579700  -0.002158   0.000827 -28.358100   0.000463  -0.008174 -26.371700  -3.509090   7.039810 -26.587600  -0.002803   0.000399 -17.707300  -0.003703  -0.000918 -27.323400  -8.682780  16.291200 -42.852800  -0.000753  -0.003871 -28.539900  -0.002498   0.004924   9.454200   2.059480  10.968000  66.239900   7.890420   4.571870  -6.653940  -9.200520  61.697400  -0.546302 -81.921600  27.446500 -37.917100  27.186400  68.843500  20.735600   0.002931  -0.001018   5.367810  -0.007887   0.004924  28.093600   8.555590  15.571900  23.943500  -0.003594   0.001391  16.760400  -0.002220   0.000788  27.270500   2.482390   4.801890  28.608900  -0.004038  -0.000501  19.053600  -0.003114   0.000209  27.879100   0.914337   1.727020  31.330100  -0.005952   0.003769  20.865900  -0.005338   0.003571  31.525000  -5.905700  -9.521570  48.026100   0.001274   0.007193  31.985400   0.000691  -0.001025   2.030560   8.188180   4.761510  -0.119768   2.554070  15.891900  -5.317130  -4.463250   4.698720  -0.000000   0.000000   0.000000   1.393390   7.299770  -6.385650  -0.669314   3.390620 -10.544100  -6.299370  -0.528469   5.068700  -0.000000   0.000000  -0.000000
 -0.569577  89.931000  -0.147096  -1.624700  -7.294570  -5.259060   0.717354   5.777990  -1.221240   1.571110  11.538800  -2.534960   0.001298  -1.606930   0.000205   0.002080  -3.258290  20.637300  -7.967940   0.224315   6.963020 -68.029200  16.799700  -5.712800   0.677982  -4.855320 -67.566300 -36.229300 -61.580000 -24.587400  50.195100  40.159900 -81.248700  -9.829500   0.009070   0.001616   0.085250   0.002256  -0.002633 -28.043500   8.808820 -16.094000 -23.959400   0.000620  -0.000271 -16.771600  -0.000527   0.004640 -28.557200  -3.806450   6.954220 -41.976200  -0.001976   0.000826 -27.956200   0.000504  -0.008067 -26.159900  -3.506090   7.107030 -26.377900  -0.002342   0.000575 -17.567600  -0.003706  -0.000913 -27.072800  -8.650590  16.381100 -42.474300  -0.000513  -0.003554 -28.287800  -0.002070   0.004698   9.483790   2.118740  10.968500  66.306600   7.895340   4.626120  -6.847550  -9.364510  61.115100  -2.698060 -81.699900  25.379400 -38.272800  27.416000  68.890100  20.847100   0.002937  -0.001028   5.423550  -0.007888   0.004930  27.876300   8.402360  15.463300  23.734600  -0.003458   0.001575  16.614200  -0.001950   0.000784  27.194900   2.423340   4.700350  28.292500  -0.003806  -0.000270  18.842900  -0.002960   0.000193  27.835100   0.868298   1.640480  31.076200  -0.005371   0.003504  20.696800  -0.005307   0.003580  31.442900  -5.883650  -9.525360  47.897800   0.001613   0.007189  31.900000   0.000700  -0.001086   2.013600   8.066540   4.740580  -0.115492   2.634140  15.766900  -5.298850  -4.479270   4.708460  -0.000000   0.000000   0.000000   1.378430   7.237010  -6.405290  -0.670726   3.435040 -10.590600  -6.298020  -0.552556   4.985400  -0.000000   0.000000   0.000000
